<?xml version="1.0" encoding="utf-8" ?>
<svg baseProfile="full" height="128" version="1.1" width="128" xmlns="http://www.w3.org/2000/svg" xmlns:ev="http://www.w3.org/2001/xml-events" xmlns:xlink="http://www.w3.org/1999/xlink"><defs /><polygon fill="black" points="57,0 56,1 51,1 50,2 47,2 46,3 44,3 43,4 41,4 40,5 39,5 38,6 36,6 35,7 34,7 32,9 31,9 30,10 29,10 26,13 25,13 20,18 19,18 18,19 18,20 13,25 13,26 10,29 10,30 9,31 9,32 7,34 7,35 6,36 6,38 5,39 5,40 4,41 4,43 3,44 3,46 2,47 2,50 1,51 1,56 0,57 0,71 1,72 1,77 2,78 2,81 3,82 3,84 4,85 4,87 5,88 5,89 6,90 6,92 7,93 7,94 9,96 9,97 10,98 10,99 13,102 13,103 18,108 18,109 19,110 20,110 25,115 26,115 29,118 30,118 31,119 32,119 34,121 35,121 36,122 38,122 39,123 40,123 41,124 43,124 44,125 46,125 47,126 50,126 51,127 77,127 78,126 81,126 82,125 84,125 85,124 87,124 88,123 89,123 90,122 92,122 93,121 94,121 96,119 97,119 98,118 99,118 102,115 103,115 108,110 109,110 110,109 110,108 115,103 115,102 118,99 118,98 119,97 119,96 121,94 121,93 122,92 122,90 123,89 123,88 124,87 124,85 125,84 125,82 126,81 126,78 127,77 127,51 126,50 126,47 125,46 125,44 124,43 124,41 123,40 123,39 122,38 122,36 121,35 121,34 119,32 119,31 118,30 118,29 115,26 115,25 110,20 110,19 109,18 108,18 103,13 102,13 99,10 98,10 97,9 96,9 94,7 93,7 92,6 90,6 89,5 88,5 87,4 85,4 84,3 82,3 81,2 78,2 77,1 72,1 71,0" /></svg>